<?xml version="1.0" encoding="UTF-8"?>
<svg id="Layer_1" data-name="Layer 1" xmlns="http://www.w3.org/2000/svg" viewBox="0 0 709.34 507.81">
  <defs>
    <style>
      .cls-1 {
        fill: #ef4f25;
      }

      .cls-2 {
        fill: #f9b79a;
      }

      .cls-3 {
        fill: #ef4f26;
      }

      .cls-4 {
        fill: #0e1723;
      }

      .cls-5 {
        fill: #40444e;
      }

      .cls-6 {
        fill: #f6906e;
      }
    </style>
  </defs>
  <path class="cls-3" d="M504.06,95.84l-.03,127.23-16.14,8.28-3.05,1.54-27.69,14.55-3.61,1.76-.03-80.36c0-.33-.34-.7-.49-.78-.15-.08-.49.21-.69.31l-4.44,2.3-9.63,5.32-4.88,2.69-8.16,4.36-13.35,7.3-10.5,5.64-1.93,1.07-2.37,1.33-18.87,10.1-2.54,1.44-2.19,1.15-3.99,2.08-11.73,6.29c-.97.52-2.11,1.69-3.37,1.47l-25.67-13.63-8.57-4.65-2.77-1.47-3.55-1.9-3.7-2.08-5.18-2.73-5.59-2.96-1.71-1.03-2.6-1.32-6.5-3.57-19.89-10.83-12.36-6.65c-.19.26-.44.62-.44,1.26l-.03,79.9-6.66-3.29-20.62-10.71-23.08-12.03.17-127.3,2.36,1.17c.94.47,1.59.82,2.45,1.25l3.9,1.93,18.97,9.89,4.01,2.07,2.45,1.25,29.47,15.26,8.2,4.37,27.34,14.29,9.22,4.9,39.59,20.87c1.11.58,1.72.35,2.8-.21l2.61-1.37,27.68-14.55,9.98-5.29,4.33-2.38,18.01-9.43,35.1-18.4,4.03-2.1,2.24-1.1,2.34-1.3,3.01-1.55,2.46-1.22,5.65-2.94,24.96-13.08,2.69-1.3c.73-.35,1.4-1.09,2.56-1.1Z"/>
  <path class="cls-1" d="M504.06,243.13l-.3,160.27c-.29.03-.91-.03-1.16-.33-.68-.82-1.65-.82-2.43-1.27l-6.81-3.88-1.56-.86-9.32-5.29-10.85-6.17-2.02-1.1-48.35-27.36-3.31-1.96-27.67-15.78-6.26-3.54-2.51-1.46-5.06-2.85-20.54-11.71c-1.3-.74-2.15-.34-3.35.33l-8.52,4.83-7.42,4.18-10.85,6.19-5.19,3.01-12.08,6.87-4.86,2.75-2.82,1.71-4.15,2.32-27.51,15.6-3.51,2.02-8.6,4.85-30.78,17.55-5.71,3.16-7.45,4.17-4.44,2.58c-1,.58-1.92,1.33-3.2,1.42l.11-160.13c1.22.13,2.18.92,3.31,1.54l10.05,5.48,2.58,1.38,24.21,12.91,4.36,2.4,5.74,3.23.04,61.79,8.01-4.35,21.53-12.21,7.38-4.19,4.84-2.75,11.31-6.4,6.2-3.56,20.36-11.56,11.89-6.7,7.17-4,9.04,5.07,7.17,4.14,16.55,9.34,4.86,2.74,21.31,12.12,1.97,1.06,1.94,1.19,21.4,12.09,4.82,2.76,9.32,5.12c.5-.51.57-1.1.57-1.94v-60s10.57-5.78,10.57-5.78l8.52-4.58,4.97-2.64,4.96-2.66,6.17-3.27,9.92-5.32c1.73-.93,3.27-2.09,5.43-2.58Z"/>
  <path class="cls-4" d="M283.89,262.45l.05-42.2,44.71,22.92,17.52,9,8.4,4.3-7.93,4.14-6.82,3.55-8.11,4.33-2.17,1.17-14.98,7.91c-1.06.56-2.28-.47-3.19-.95l-21.42-11.13-6.06-3.06Z"/>
  <path class="cls-4" d="M424.45,220.67c.24.05.43.15.43.41v41.48s-7.08,3.8-7.08,3.8l-20.59,10.71c-1.5.78-2.36.74-3.92-.14l-4.48-2.51-14.13-7.44-7.33-3.77-3.45-1.94-8.03-4.14c-.44-.23-.72-.13-.78-.62-.06-.61.54-.46.82-.59l2.88-1.39,7.83-4.05,10.88-5.59,25.86-13.37,16.86-8.73,4.22-2.11Z"/>
  <path class="cls-6" d="M205.58,243.26l-.11,160.13c-.17.01-.49.09-.49-.4v-159.62c.28-.23.48-.13.6-.12Z"/>
  <path class="cls-6" d="M205.62,95.91l-.17,127.3c-.32-.17-.48-.15-.48-.72v-126.47c.04-.19.56-.15.65-.1Z"/>
  <path class="cls-2" d="M503.75,403.39l.3-160.27v159.87c0,.38-.17.39-.3.4Z"/>
  <path class="cls-2" d="M504.03,223.07l.03-127.23-.03,127.23Z"/>
  <path class="cls-5" d="M424.86,262.56v-41.48c.01-.27-.18-.37-.42-.41.2-.1,1.01-.46,1.01-.17l.04,41.31c0,.31-.1.49-.21.54l-.42.2Z"/>
  <path class="cls-5" d="M283.89,262.45l.05-42.2-.05,42.2Z"/>
</svg>