<?xml version="1.0" encoding="UTF-8"?>
<svg id="Layer_1" data-name="Layer 1" xmlns="http://www.w3.org/2000/svg" viewBox="520 215 930 952">
  <defs>
    <style>
      .cls-1 {
        fill: #f06944;
      }

      .cls-2 {
        fill: #ef4f25;
      }

      .cls-3 {
        fill: #f9b79a;
      }

      .cls-4 {
        fill: #ef4f26;
      }

      .cls-5 {
        fill: #0e1723;
      }

      .cls-6 {
        fill: #f6906e;
      }
    </style>
  </defs>
  <path class="cls-4" d="M1395.42,265.63l-.08,352.32-43.83,22.81-8.41,4.29-61.29,32.1-16.59,8.82c-2.12,1.13-4.69,1.49-6.31,3-.5.12-1.76.19-1.76-1.12l-.03-223.31c-2.13-.36-3.03.22-3.35.88-.57,1.2-2.07,1.75-3.45,2.49l-17.5,9.36-18.72,10.17-13.49,7.45-22.59,12.06-36.96,20.23-29.07,15.61-5.36,2.98-6.56,3.68-52.26,27.97-7.02,3.99-6.06,3.2-11.03,5.76-32.49,17.42c-2.67,1.43-5.81,4.69-9.34,4.06l-71.04-37.77-23.72-12.87-7.67-4.07-9.84-5.27-10.25-5.79-14.33-7.55-15.47-8.2-4.74-2.84-7.21-3.65-17.98-9.9-55.09-30-34.53-18.57c-.34-.32-.23-1.31-1.4-.81-.8.34-1.19.24-1.19,1.9v221.34c-.01.86-.56,1.07-.92,1.2l-16.48-8.09-56.51-29.42-63.68-33.24.15-352.61,6.7,3.25c2.5,1.22,4.39,2.28,6.73,3.45l10.81,5.36,52.51,27.38,11.1,5.73,6.78,3.47,81.58,42.25,22.71,12.1,75.69,39.59,25.53,13.57,109.6,57.82c3.07,1.62,4.74,1,7.77-.6l7.22-3.81,76.62-40.29,27.63-14.65,12-6.58,49.85-26.12,96.63-50.69,11.7-6.09,6.21-3.02,6.48-3.62,8.33-4.28,6.81-3.37,15.64-8.16,69.08-36.23,7.47-3.62c1.98-.96,3.95-3.01,6.24-2.85Z"/>
  <path class="cls-2" d="M707.41,747.92l.03,171.16c0,1.96,2.65.44,3.63-.12l20.26-11.47,59.63-33.88,20.42-11.6,13.39-7.62,31.3-17.72,17.17-9.85,56.37-32.02,32.92-18.55,19.85-11.08,25.02,14.05,19.86,11.48,45.83,25.89,13.45,7.57,58.99,33.56,5.45,2.93,5.37,3.33,53.35,30.09,6.45,3.63,12.86,7.32,18.36,10.25c1.84,1.03,3,1.29,4.01,2.93.89,1.45,3.69,1.98,5.76,1.54l-.72-172.33,27.2-14.48c2.13-1.14,3.74-3.26,6.5-3.43l19.07-10.53,13.76-7.3,13.75-7.34,17.1-9.07,39.94-21.54c1.13-.61,2.54.02,2.54.8-.32.06-.78.19-.85,1.14v441.56c-.79.09-2.53-.07-3.21-.91-1.86-2.29-4.58-2.28-6.72-3.5l-19.34-11.01-3.27-1.85-26.34-14.96-30.05-17.1-5.6-3.03-133.85-75.76-9.15-5.43-76.61-43.71-17.32-9.8-6.95-4.06-14.01-7.89-56.88-32.42c-3.59-2.05-6-.94-9.27.92l-23.59,13.38-20.55,11.58-30.02,17.15-13.82,8-34.56,19.68-12.9,7.3-7.79,4.74-11.48,6.44-76.16,43.21-9.72,5.61-23.76,13.4-53.74,30.57-6.49,3.58-12.84,7.4-23.71,13.29-5.31,3.16-19.61,10.91-12.29,7.17c-2.74,1.6-5.36,3.65-8.56,3.88v-443.43c3.37.35,6.1,2.57,9.12,4.23l18.65,10.27,82.85,44.23,22.49,12.19c1.74.94,3.43,1.73,4.34,3.27Z"/>
  <path class="cls-5" d="M1008.78,723.99l-5.03-2.74-17.76-9.08c-1.26-.64-1.97-.47-2.13-1.76-.21-1.71,1.52-1.27,2.14-1.57l7.64-3.61,5.93-3.32,46.28-23.75,71.67-36.98,47.16-24.41,13.96-6.79.13,116.28-21.31,11.42-57.55,29.87c-3.38,1.75-5.64,1.98-9.23-.03l-12.81-7.18-22.76-11.96-37.85-19.66-8.48-4.74Z"/>
  <path class="cls-5" d="M941.84,731.45l-22.73,12.15-6.04,3.23-40.8,21.72c-3.16,1.68-6.14-.64-8.95-2.1l-59.84-31.07-16.78-8.49.12-37.23-.19-77.39c0-.72.61-1.22.86-1.42.51-.4.99-.12,1.86.33l35.15,17.87c2.29,1.16,3.8,2.02,6.18,3.29l4.83,2.57,10.82,5.36,64.42,33.3,49.03,25.14,22.55,11.68-40.48,21.06Z"/>
  <path class="cls-6" d="M569.96,673.73v443.43c-.35.02-.91.36-1.67-.31v-442.81c.76-.65,1.32-.35,1.67-.32Z"/>
  <path class="cls-6" d="M569.99,265.64l-.15,352.61c-.18,0-1.55-.12-1.55-1.26v-351.08c.77-.57,1.37-.43,1.7-.27Z"/>
  <path class="cls-1" d="M710.01,465.38c-.9,2.21-.92,3.99-.92,6.99v216.36c0,1.3-1.23,1.42-1.88.87l-.7-.6c.36-.13.9-.33.9-1.2v-221.34c.01-1.66.4-1.56,1.21-1.9,1.17-.5,1.06.49,1.4.81Z"/>
  <path class="cls-3" d="M1395.41,1117.22v-441.56c.07-.96.53-1.08.85-1.14v441.61c0,1.04-.5,1.06-.85,1.1Z"/>
  <path class="cls-3" d="M1395.34,617.96l.08-352.32c.12,0,.42-.1.84.3v350.25c0,1.52-.33,1.46-.92,1.77Z"/>
  <path class="cls-1" d="M711.07,918.96c-.98.55-3.63,2.08-3.63.12l-.03-171.16c.27-.19,1.68-.05,1.68.97l.02,169.84c0,.52,1.84.52,1.96.24Z"/>
  <path class="cls-1" d="M1258.91,688.98c-.54.5-.49.75-1.38.79-.55.03-1.23.07-1.23-1.07v-220.44c0-1.99-1.41-2.89-2.53-2.84.32-.66,1.22-1.24,3.35-.88l.03,223.31c0,1.31,1.26,1.24,1.76,1.12Z"/>
  <path class="cls-1" d="M1251.38,918.19c.69-.19,2.42.62,3.37.78,1.55-.9,1.54-2.96,1.54-5.11l.13-166.46.72,172.33c-2.07.45-4.87-.09-5.76-1.54Z"/>
</svg>
