<?xml version="1.0" encoding="UTF-8"?>
<svg xmlns="http://www.w3.org/2000/svg" viewBox="520 215 930 952">
  <path fill="#0e1723" d="M1008.78,723.99l-5.03-2.74-17.76-9.08c-1.26-.64-1.97-.47-2.13-1.76-.21-1.71,1.52-1.27,2.14-1.57l7.64-3.61,5.93-3.32,46.28-23.75,71.67-36.98,47.16-24.41,13.96-6.79.13,116.28-21.31,11.42-57.55,29.87c-3.38,1.75-5.64,1.98-9.23-.03l-12.81-7.18-22.76-11.96-37.85-19.66-8.48-4.74Z"/>
  <path fill="#0e1723" d="M941.84,731.45l-22.73,12.15-6.04,3.23-40.8,21.72c-3.16,1.68-6.14-.64-8.95-2.1l-59.84-31.07-16.78-8.49.12-37.23-.19-77.39c0-.72.61-1.22.86-1.42.51-.4.99-.12,1.86.33l35.15,17.87c2.29,1.16,3.8,2.02,6.18,3.29l4.83,2.57,10.82,5.36,64.42,33.3,49.03,25.14,22.55,11.68-40.48,21.06Z"/>
</svg>
